<svg width="24" height="24" viewBox="0 0 24 24" fill="none" xmlns="http://www.w3.org/2000/svg">
<path d="M9.28165 12C9.28165 12.6962 9.55821 13.3639 10.0505 13.8562C10.5428 14.3484 11.2105 14.625 11.9066 14.625C12.6028 14.625 13.2705 14.3484 13.7628 13.8562C14.2551 13.3639 14.5316 12.6962 14.5316 12C14.5316 11.3038 14.2551 10.6361 13.7628 10.1438C13.2705 9.65156 12.6028 9.375 11.9066 9.375C11.2105 9.375 10.5428 9.65156 10.0505 10.1438C9.55821 10.6361 9.28165 11.3038 9.28165 12ZM22.0832 11.3953C19.8613 6.71484 16.5027 4.35938 12.0004 4.35938C7.49571 4.35938 4.13946 6.71484 1.91758 11.3977C1.82846 11.5864 1.78224 11.7925 1.78224 12.0012C1.78224 12.2099 1.82846 12.416 1.91758 12.6047C4.13946 17.2852 7.49805 19.6406 12.0004 19.6406C16.5051 19.6406 19.8613 17.2852 22.0832 12.6023C22.2637 12.2227 22.2637 11.782 22.0832 11.3953ZM11.9066 16.125C9.62852 16.125 7.78165 14.2781 7.78165 12C7.78165 9.72188 9.62852 7.875 11.9066 7.875C14.1848 7.875 16.0316 9.72188 16.0316 12C16.0316 14.2781 14.1848 16.125 11.9066 16.125Z" fill="white"/>
</svg>
