<svg width="8" height="14" viewBox="0 0 8 14" fill="none" xmlns="http://www.w3.org/2000/svg">
<path d="M1.87298 0.268321C1.70859 0.0947014 1.49938 5.68302e-07 1.2528 5.89859e-07C0.75965 6.32971e-07 0.363635 0.410372 0.363635 0.931229C0.363635 1.19166 0.468243 1.42841 0.640099 1.60992L5.87049 7.00789L0.6401 12.3901C0.468244 12.5716 0.363636 12.8162 0.363636 13.0688C0.363636 13.5896 0.759652 14 1.2528 14C1.49938 14 1.70859 13.9053 1.87298 13.7317L7.68618 7.73393C7.89539 7.52875 7.99253 7.27621 8 7C8 6.72379 7.89539 6.48703 7.68618 6.27396L1.87298 0.268321Z" fill="#B13552"/>
<path d="M1.87298 0.268321C1.70859 0.0947014 1.49938 5.68302e-07 1.2528 5.89859e-07C0.75965 6.32971e-07 0.363635 0.410372 0.363635 0.931229C0.363635 1.19166 0.468243 1.42841 0.640099 1.60992L5.87049 7.00789L0.6401 12.3901C0.468244 12.5716 0.363636 12.8162 0.363636 13.0688C0.363636 13.5896 0.759652 14 1.2528 14C1.49938 14 1.70859 13.9053 1.87298 13.7317L7.68618 7.73393C7.89539 7.52875 7.99253 7.27621 8 7C8 6.72379 7.89539 6.48703 7.68618 6.27396L1.87298 0.268321Z" fill="url(#paint0_linear_3_254)"/>
<defs>
<linearGradient id="paint0_linear_3_254" x1="4.18182" y1="14" x2="4.18182" y2="3.33796e-07" gradientUnits="userSpaceOnUse">
<stop stop-color="#4271B5"/>
<stop offset="0.0001" stop-color="#4271B5"/>
<stop offset="1" stop-color="#5E94E1"/>
</linearGradient>
</defs>
</svg>
